<mxfile host="Electron" agent="Mozilla/5.0 (Macintosh; Intel Mac OS X 10_15_7) AppleWebKit/537.36 (KHTML, like Gecko) draw.io/27.0.5 Chrome/134.0.6998.205 Electron/35.3.0 Safari/537.36" version="27.0.5">
  <diagram name="Страница — 1" id="JWuAVilLNDcYM9sPoWWw">
    <mxGraphModel dx="1443" dy="664" grid="1" gridSize="10" guides="1" tooltips="1" connect="1" arrows="1" fold="1" page="1" pageScale="1" pageWidth="827" pageHeight="1169" math="0" shadow="0">
      <root>
        <mxCell id="0" />
        <mxCell id="1" parent="0" />
        <mxCell id="McbWOgq2CKRxM0jZ_3p6-3" value="1.0" style="swimlane;fontStyle=0;childLayout=stackLayout;horizontal=1;startSize=20;fillColor=#FFFFFF;horizontalStack=0;resizeParent=1;resizeParentMax=0;resizeLast=0;collapsible=0;marginBottom=0;swimlaneFillColor=#ffffff;strokeColor=#000000;labelBorderColor=none;" parent="1" vertex="1">
          <mxGeometry x="230" y="180" width="130" height="70" as="geometry" />
        </mxCell>
        <mxCell id="McbWOgq2CKRxM0jZ_3p6-4" value="Указывает персональные&lt;br&gt;данные" style="text;strokeColor=#000000;align=center;fillColor=#FFFFFF;html=1;verticalAlign=middle;whiteSpace=wrap;rounded=0;" parent="McbWOgq2CKRxM0jZ_3p6-3" vertex="1">
          <mxGeometry y="20" width="130" height="50" as="geometry" />
        </mxCell>
        <mxCell id="McbWOgq2CKRxM0jZ_3p6-8" style="edgeStyle=orthogonalEdgeStyle;rounded=0;orthogonalLoop=1;jettySize=auto;html=1;" parent="1" source="McbWOgq2CKRxM0jZ_3p6-1" edge="1">
          <mxGeometry relative="1" as="geometry">
            <mxPoint x="230" y="215" as="targetPoint" />
            <Array as="points">
              <mxPoint x="230" y="215" />
            </Array>
          </mxGeometry>
        </mxCell>
        <mxCell id="McbWOgq2CKRxM0jZ_3p6-1" value="Пациент" style="rounded=0;whiteSpace=wrap;html=1;" parent="1" vertex="1">
          <mxGeometry x="20" y="185" width="120" height="60" as="geometry" />
        </mxCell>
        <mxCell id="McbWOgq2CKRxM0jZ_3p6-16" style="edgeStyle=orthogonalEdgeStyle;rounded=0;orthogonalLoop=1;jettySize=auto;html=1;entryX=1;entryY=0.25;entryDx=0;entryDy=0;" parent="1" source="McbWOgq2CKRxM0jZ_3p6-7" target="McbWOgq2CKRxM0jZ_3p6-15" edge="1">
          <mxGeometry relative="1" as="geometry">
            <Array as="points">
              <mxPoint x="510" y="353" />
            </Array>
          </mxGeometry>
        </mxCell>
        <mxCell id="McbWOgq2CKRxM0jZ_3p6-7" value="Администратор" style="rounded=0;whiteSpace=wrap;html=1;" parent="1" vertex="1">
          <mxGeometry x="450" y="185" width="120" height="60" as="geometry" />
        </mxCell>
        <mxCell id="McbWOgq2CKRxM0jZ_3p6-9" style="edgeStyle=orthogonalEdgeStyle;rounded=0;orthogonalLoop=1;jettySize=auto;html=1;entryX=0.013;entryY=0.676;entryDx=0;entryDy=0;entryPerimeter=0;" parent="1" source="McbWOgq2CKRxM0jZ_3p6-4" target="McbWOgq2CKRxM0jZ_3p6-7" edge="1">
          <mxGeometry relative="1" as="geometry" />
        </mxCell>
        <mxCell id="McbWOgq2CKRxM0jZ_3p6-14" value="2.0" style="swimlane;fontStyle=0;childLayout=stackLayout;horizontal=1;startSize=20;fillColor=#FFFFFF;horizontalStack=0;resizeParent=1;resizeParentMax=0;resizeLast=0;collapsible=0;marginBottom=0;swimlaneFillColor=#ffffff;strokeColor=#000000;labelBorderColor=none;" parent="1" vertex="1">
          <mxGeometry x="230" y="320" width="130" height="70" as="geometry" />
        </mxCell>
        <mxCell id="McbWOgq2CKRxM0jZ_3p6-15" value="Поиск пациента в файле" style="text;strokeColor=#000000;align=center;fillColor=#FFFFFF;html=1;verticalAlign=middle;whiteSpace=wrap;rounded=0;" parent="McbWOgq2CKRxM0jZ_3p6-14" vertex="1">
          <mxGeometry y="20" width="130" height="50" as="geometry" />
        </mxCell>
        <mxCell id="McbWOgq2CKRxM0jZ_3p6-17" value="2.1" style="swimlane;fontStyle=0;childLayout=stackLayout;horizontal=1;startSize=20;fillColor=#FFFFFF;horizontalStack=0;resizeParent=1;resizeParentMax=0;resizeLast=0;collapsible=0;marginBottom=0;swimlaneFillColor=#ffffff;strokeColor=#000000;labelBorderColor=none;" parent="1" vertex="1">
          <mxGeometry x="15" y="320" width="130" height="70" as="geometry" />
        </mxCell>
        <mxCell id="McbWOgq2CKRxM0jZ_3p6-18" value="Создание нового пациента" style="text;strokeColor=#000000;align=center;fillColor=#FFFFFF;html=1;verticalAlign=middle;whiteSpace=wrap;rounded=0;" parent="McbWOgq2CKRxM0jZ_3p6-17" vertex="1">
          <mxGeometry y="20" width="130" height="50" as="geometry" />
        </mxCell>
        <mxCell id="McbWOgq2CKRxM0jZ_3p6-19" style="edgeStyle=orthogonalEdgeStyle;rounded=0;orthogonalLoop=1;jettySize=auto;html=1;entryX=1;entryY=0.5;entryDx=0;entryDy=0;" parent="1" source="McbWOgq2CKRxM0jZ_3p6-15" target="McbWOgq2CKRxM0jZ_3p6-18" edge="1">
          <mxGeometry relative="1" as="geometry" />
        </mxCell>
        <mxCell id="McbWOgq2CKRxM0jZ_3p6-24" value="2.2" style="swimlane;fontStyle=0;childLayout=stackLayout;horizontal=1;startSize=20;fillColor=#FFFFFF;horizontalStack=0;resizeParent=1;resizeParentMax=0;resizeLast=0;collapsible=0;marginBottom=0;swimlaneFillColor=#ffffff;strokeColor=#000000;labelBorderColor=none;" parent="1" vertex="1">
          <mxGeometry x="-180" y="320" width="130" height="70" as="geometry" />
        </mxCell>
        <mxCell id="McbWOgq2CKRxM0jZ_3p6-25" value="Создание папки новому пациенту" style="text;strokeColor=#000000;align=center;fillColor=#FFFFFF;html=1;verticalAlign=middle;whiteSpace=wrap;rounded=0;" parent="McbWOgq2CKRxM0jZ_3p6-24" vertex="1">
          <mxGeometry y="20" width="130" height="50" as="geometry" />
        </mxCell>
        <mxCell id="McbWOgq2CKRxM0jZ_3p6-26" style="edgeStyle=orthogonalEdgeStyle;rounded=0;orthogonalLoop=1;jettySize=auto;html=1;entryX=1;entryY=0.5;entryDx=0;entryDy=0;" parent="1" source="McbWOgq2CKRxM0jZ_3p6-18" target="McbWOgq2CKRxM0jZ_3p6-25" edge="1">
          <mxGeometry relative="1" as="geometry" />
        </mxCell>
        <mxCell id="McbWOgq2CKRxM0jZ_3p6-28" value="Excel файлы пациента" style="rounded=1;whiteSpace=wrap;html=1;" parent="1" vertex="1">
          <mxGeometry x="-370" y="325" width="120" height="60" as="geometry" />
        </mxCell>
        <mxCell id="McbWOgq2CKRxM0jZ_3p6-30" style="edgeStyle=orthogonalEdgeStyle;rounded=0;orthogonalLoop=1;jettySize=auto;html=1;entryX=1.024;entryY=0.678;entryDx=0;entryDy=0;entryPerimeter=0;" parent="1" source="McbWOgq2CKRxM0jZ_3p6-25" target="McbWOgq2CKRxM0jZ_3p6-28" edge="1">
          <mxGeometry relative="1" as="geometry" />
        </mxCell>
        <mxCell id="McbWOgq2CKRxM0jZ_3p6-31" value="3.0" style="swimlane;fontStyle=0;childLayout=stackLayout;horizontal=1;startSize=20;fillColor=#FFFFFF;horizontalStack=0;resizeParent=1;resizeParentMax=0;resizeLast=0;collapsible=0;marginBottom=0;swimlaneFillColor=#ffffff;strokeColor=#000000;labelBorderColor=none;" parent="1" vertex="1">
          <mxGeometry x="230" y="460" width="130" height="70" as="geometry" />
        </mxCell>
        <mxCell id="McbWOgq2CKRxM0jZ_3p6-32" value="Поиск времени у врача" style="text;strokeColor=#000000;align=center;fillColor=#FFFFFF;html=1;verticalAlign=middle;whiteSpace=wrap;rounded=0;" parent="McbWOgq2CKRxM0jZ_3p6-31" vertex="1">
          <mxGeometry y="20" width="130" height="50" as="geometry" />
        </mxCell>
        <mxCell id="McbWOgq2CKRxM0jZ_3p6-33" value="3.1" style="swimlane;fontStyle=0;childLayout=stackLayout;horizontal=1;startSize=20;fillColor=#FFFFFF;horizontalStack=0;resizeParent=1;resizeParentMax=0;resizeLast=0;collapsible=0;marginBottom=0;swimlaneFillColor=#ffffff;strokeColor=#000000;labelBorderColor=none;" parent="1" vertex="1">
          <mxGeometry x="15" y="460" width="130" height="70" as="geometry" />
        </mxCell>
        <mxCell id="McbWOgq2CKRxM0jZ_3p6-34" value="Создание записи на прием" style="text;strokeColor=#000000;align=center;fillColor=#FFFFFF;html=1;verticalAlign=middle;whiteSpace=wrap;rounded=0;" parent="McbWOgq2CKRxM0jZ_3p6-33" vertex="1">
          <mxGeometry y="20" width="130" height="50" as="geometry" />
        </mxCell>
        <mxCell id="McbWOgq2CKRxM0jZ_3p6-35" value="3.2" style="swimlane;fontStyle=0;childLayout=stackLayout;horizontal=1;startSize=20;fillColor=#FFFFFF;horizontalStack=0;resizeParent=1;resizeParentMax=0;resizeLast=0;collapsible=0;marginBottom=0;swimlaneFillColor=#ffffff;strokeColor=#000000;labelBorderColor=none;" parent="1" vertex="1">
          <mxGeometry x="-180" y="460" width="130" height="70" as="geometry" />
        </mxCell>
        <mxCell id="McbWOgq2CKRxM0jZ_3p6-36" value="Создание новой записи клиенту" style="text;strokeColor=#000000;align=center;fillColor=#FFFFFF;html=1;verticalAlign=middle;whiteSpace=wrap;rounded=0;" parent="McbWOgq2CKRxM0jZ_3p6-35" vertex="1">
          <mxGeometry y="20" width="130" height="50" as="geometry" />
        </mxCell>
        <mxCell id="McbWOgq2CKRxM0jZ_3p6-37" style="edgeStyle=orthogonalEdgeStyle;rounded=0;orthogonalLoop=1;jettySize=auto;html=1;entryX=1;entryY=0.5;entryDx=0;entryDy=0;" parent="1" source="McbWOgq2CKRxM0jZ_3p6-32" target="McbWOgq2CKRxM0jZ_3p6-34" edge="1">
          <mxGeometry relative="1" as="geometry" />
        </mxCell>
        <mxCell id="McbWOgq2CKRxM0jZ_3p6-38" style="edgeStyle=orthogonalEdgeStyle;rounded=0;orthogonalLoop=1;jettySize=auto;html=1;entryX=1;entryY=0.5;entryDx=0;entryDy=0;" parent="1" source="McbWOgq2CKRxM0jZ_3p6-34" target="McbWOgq2CKRxM0jZ_3p6-36" edge="1">
          <mxGeometry relative="1" as="geometry" />
        </mxCell>
        <mxCell id="McbWOgq2CKRxM0jZ_3p6-39" value="Excel файлы учета пациентов&amp;nbsp;" style="rounded=1;whiteSpace=wrap;html=1;" parent="1" vertex="1">
          <mxGeometry x="20" y="610" width="120" height="60" as="geometry" />
        </mxCell>
        <mxCell id="McbWOgq2CKRxM0jZ_3p6-40" style="edgeStyle=orthogonalEdgeStyle;rounded=0;orthogonalLoop=1;jettySize=auto;html=1;entryX=0;entryY=0.5;entryDx=0;entryDy=0;" parent="1" source="McbWOgq2CKRxM0jZ_3p6-36" target="McbWOgq2CKRxM0jZ_3p6-39" edge="1">
          <mxGeometry relative="1" as="geometry">
            <Array as="points">
              <mxPoint x="-115" y="640" />
            </Array>
          </mxGeometry>
        </mxCell>
        <mxCell id="McbWOgq2CKRxM0jZ_3p6-41" style="edgeStyle=orthogonalEdgeStyle;rounded=0;orthogonalLoop=1;jettySize=auto;html=1;entryX=0.5;entryY=0;entryDx=0;entryDy=0;" parent="1" source="McbWOgq2CKRxM0jZ_3p6-34" target="McbWOgq2CKRxM0jZ_3p6-39" edge="1">
          <mxGeometry relative="1" as="geometry" />
        </mxCell>
        <mxCell id="McbWOgq2CKRxM0jZ_3p6-42" style="edgeStyle=orthogonalEdgeStyle;rounded=0;orthogonalLoop=1;jettySize=auto;html=1;entryX=1;entryY=0.5;entryDx=0;entryDy=0;" parent="1" source="McbWOgq2CKRxM0jZ_3p6-32" target="McbWOgq2CKRxM0jZ_3p6-39" edge="1">
          <mxGeometry relative="1" as="geometry">
            <Array as="points">
              <mxPoint x="290" y="640" />
            </Array>
          </mxGeometry>
        </mxCell>
        <mxCell id="McbWOgq2CKRxM0jZ_3p6-43" style="edgeStyle=orthogonalEdgeStyle;rounded=0;orthogonalLoop=1;jettySize=auto;html=1;entryX=0.621;entryY=1.005;entryDx=0;entryDy=0;entryPerimeter=0;" parent="1" source="McbWOgq2CKRxM0jZ_3p6-15" target="McbWOgq2CKRxM0jZ_3p6-39" edge="1">
          <mxGeometry relative="1" as="geometry">
            <Array as="points">
              <mxPoint x="390" y="365" />
              <mxPoint x="390" y="690" />
              <mxPoint x="94" y="690" />
            </Array>
          </mxGeometry>
        </mxCell>
        <mxCell id="McbWOgq2CKRxM0jZ_3p6-44" value="&lt;b style=&quot;forced-color-adjust: none; color: rgb(0, 0, 0); font-family: Helvetica; font-size: 24px; font-style: normal; font-variant-ligatures: normal; font-variant-caps: normal; letter-spacing: normal; orphans: 2; text-align: left; text-indent: 0px; text-transform: none; widows: 2; word-spacing: 0px; -webkit-text-stroke-width: 0px; white-space: normal; background-color: rgb(236, 236, 236); text-decoration-thickness: initial; text-decoration-style: initial; text-decoration-color: initial;&quot;&gt;Запись на прием&lt;/b&gt;" style="text;whiteSpace=wrap;html=1;" parent="1" vertex="1">
          <mxGeometry x="-350" y="130" width="380" height="50" as="geometry" />
        </mxCell>
        <mxCell id="McbWOgq2CKRxM0jZ_3p6-45" value="&lt;b style=&quot;forced-color-adjust: none; color: rgb(0, 0, 0); font-family: Helvetica; font-size: 24px; font-style: normal; font-variant-ligatures: normal; font-variant-caps: normal; letter-spacing: normal; orphans: 2; text-align: left; text-indent: 0px; text-transform: none; widows: 2; word-spacing: 0px; -webkit-text-stroke-width: 0px; white-space: normal; background-color: rgb(236, 236, 236); text-decoration-thickness: initial; text-decoration-style: initial; text-decoration-color: initial;&quot;&gt;Оплата&lt;/b&gt;" style="text;whiteSpace=wrap;html=1;" parent="1" vertex="1">
          <mxGeometry x="-360" y="780" width="130" height="50" as="geometry" />
        </mxCell>
        <mxCell id="McbWOgq2CKRxM0jZ_3p6-52" style="edgeStyle=orthogonalEdgeStyle;rounded=0;orthogonalLoop=1;jettySize=auto;html=1;entryX=-0.001;entryY=0.302;entryDx=0;entryDy=0;entryPerimeter=0;" parent="1" source="McbWOgq2CKRxM0jZ_3p6-46" target="McbWOgq2CKRxM0jZ_3p6-50" edge="1">
          <mxGeometry relative="1" as="geometry">
            <Array as="points">
              <mxPoint x="-140" y="880" />
            </Array>
          </mxGeometry>
        </mxCell>
        <mxCell id="McbWOgq2CKRxM0jZ_3p6-46" value="Пациент" style="rounded=0;whiteSpace=wrap;html=1;" parent="1" vertex="1">
          <mxGeometry x="-370" y="850" width="120" height="60" as="geometry" />
        </mxCell>
        <mxCell id="McbWOgq2CKRxM0jZ_3p6-58" style="edgeStyle=orthogonalEdgeStyle;rounded=0;orthogonalLoop=1;jettySize=auto;html=1;entryX=0.001;entryY=0.371;entryDx=0;entryDy=0;entryPerimeter=0;" parent="1" source="McbWOgq2CKRxM0jZ_3p6-47" target="McbWOgq2CKRxM0jZ_3p6-57" edge="1">
          <mxGeometry relative="1" as="geometry">
            <Array as="points">
              <mxPoint x="280" y="880" />
              <mxPoint x="280" y="879" />
            </Array>
          </mxGeometry>
        </mxCell>
        <mxCell id="McbWOgq2CKRxM0jZ_3p6-47" value="Кассир" style="rounded=0;whiteSpace=wrap;html=1;" parent="1" vertex="1">
          <mxGeometry x="80" y="850" width="120" height="60" as="geometry" />
        </mxCell>
        <mxCell id="McbWOgq2CKRxM0jZ_3p6-49" value="1.0" style="swimlane;fontStyle=0;childLayout=stackLayout;horizontal=1;startSize=20;fillColor=#FFFFFF;horizontalStack=0;resizeParent=1;resizeParentMax=0;resizeLast=0;collapsible=0;marginBottom=0;swimlaneFillColor=#ffffff;strokeColor=#000000;labelBorderColor=none;" parent="1" vertex="1">
          <mxGeometry x="-140" y="845" width="130" height="70" as="geometry" />
        </mxCell>
        <mxCell id="McbWOgq2CKRxM0jZ_3p6-50" value="Оплата по счету" style="text;strokeColor=#000000;align=center;fillColor=#FFFFFF;html=1;verticalAlign=middle;whiteSpace=wrap;rounded=0;" parent="McbWOgq2CKRxM0jZ_3p6-49" vertex="1">
          <mxGeometry y="20" width="130" height="50" as="geometry" />
        </mxCell>
        <mxCell id="McbWOgq2CKRxM0jZ_3p6-53" style="edgeStyle=orthogonalEdgeStyle;rounded=0;orthogonalLoop=1;jettySize=auto;html=1;entryX=-0.015;entryY=0.653;entryDx=0;entryDy=0;entryPerimeter=0;" parent="1" source="McbWOgq2CKRxM0jZ_3p6-50" target="McbWOgq2CKRxM0jZ_3p6-47" edge="1">
          <mxGeometry relative="1" as="geometry" />
        </mxCell>
        <mxCell id="McbWOgq2CKRxM0jZ_3p6-54" value="Excel файлы с оплатами" style="rounded=1;whiteSpace=wrap;html=1;" parent="1" vertex="1">
          <mxGeometry x="480" y="770" width="120" height="60" as="geometry" />
        </mxCell>
        <mxCell id="McbWOgq2CKRxM0jZ_3p6-55" value="1C Бухгалтерия" style="rounded=1;whiteSpace=wrap;html=1;" parent="1" vertex="1">
          <mxGeometry x="480" y="930" width="120" height="60" as="geometry" />
        </mxCell>
        <mxCell id="McbWOgq2CKRxM0jZ_3p6-56" value="2.0" style="swimlane;fontStyle=0;childLayout=stackLayout;horizontal=1;startSize=20;fillColor=#FFFFFF;horizontalStack=0;resizeParent=1;resizeParentMax=0;resizeLast=0;collapsible=0;marginBottom=0;swimlaneFillColor=#ffffff;strokeColor=#000000;labelBorderColor=none;" parent="1" vertex="1">
          <mxGeometry x="290" y="840" width="130" height="70" as="geometry" />
        </mxCell>
        <mxCell id="McbWOgq2CKRxM0jZ_3p6-57" value="Учет платежа" style="text;strokeColor=#000000;align=center;fillColor=#FFFFFF;html=1;verticalAlign=middle;whiteSpace=wrap;rounded=0;" parent="McbWOgq2CKRxM0jZ_3p6-56" vertex="1">
          <mxGeometry y="20" width="130" height="50" as="geometry" />
        </mxCell>
        <mxCell id="McbWOgq2CKRxM0jZ_3p6-59" style="edgeStyle=orthogonalEdgeStyle;rounded=0;orthogonalLoop=1;jettySize=auto;html=1;entryX=0;entryY=0.5;entryDx=0;entryDy=0;" parent="1" source="McbWOgq2CKRxM0jZ_3p6-57" target="McbWOgq2CKRxM0jZ_3p6-54" edge="1">
          <mxGeometry relative="1" as="geometry" />
        </mxCell>
        <mxCell id="McbWOgq2CKRxM0jZ_3p6-60" style="edgeStyle=orthogonalEdgeStyle;rounded=0;orthogonalLoop=1;jettySize=auto;html=1;" parent="1" source="McbWOgq2CKRxM0jZ_3p6-57" target="McbWOgq2CKRxM0jZ_3p6-55" edge="1">
          <mxGeometry relative="1" as="geometry">
            <Array as="points">
              <mxPoint x="450" y="885" />
              <mxPoint x="450" y="960" />
            </Array>
          </mxGeometry>
        </mxCell>
        <mxCell id="McbWOgq2CKRxM0jZ_3p6-66" style="edgeStyle=orthogonalEdgeStyle;rounded=0;orthogonalLoop=1;jettySize=auto;html=1;" parent="1" source="McbWOgq2CKRxM0jZ_3p6-61" edge="1">
          <mxGeometry relative="1" as="geometry">
            <mxPoint x="260" y="1050" as="targetPoint" />
            <Array as="points">
              <mxPoint x="260" y="1050" />
            </Array>
          </mxGeometry>
        </mxCell>
        <mxCell id="McbWOgq2CKRxM0jZ_3p6-61" value="Бухгалтер" style="rounded=0;whiteSpace=wrap;html=1;" parent="1" vertex="1">
          <mxGeometry x="50" y="1020" width="120" height="60" as="geometry" />
        </mxCell>
        <mxCell id="McbWOgq2CKRxM0jZ_3p6-62" style="edgeStyle=orthogonalEdgeStyle;rounded=0;orthogonalLoop=1;jettySize=auto;html=1;entryX=0.5;entryY=0;entryDx=0;entryDy=0;" parent="1" source="McbWOgq2CKRxM0jZ_3p6-15" target="McbWOgq2CKRxM0jZ_3p6-31" edge="1">
          <mxGeometry relative="1" as="geometry" />
        </mxCell>
        <mxCell id="McbWOgq2CKRxM0jZ_3p6-63" style="edgeStyle=orthogonalEdgeStyle;rounded=0;orthogonalLoop=1;jettySize=auto;html=1;entryX=0.5;entryY=0;entryDx=0;entryDy=0;" parent="1" source="McbWOgq2CKRxM0jZ_3p6-15" target="McbWOgq2CKRxM0jZ_3p6-35" edge="1">
          <mxGeometry relative="1" as="geometry">
            <Array as="points">
              <mxPoint x="295" y="420" />
              <mxPoint x="-115" y="420" />
            </Array>
          </mxGeometry>
        </mxCell>
        <mxCell id="McbWOgq2CKRxM0jZ_3p6-67" style="edgeStyle=orthogonalEdgeStyle;rounded=0;orthogonalLoop=1;jettySize=auto;html=1;entryX=0.5;entryY=1;entryDx=0;entryDy=0;" parent="1" source="McbWOgq2CKRxM0jZ_3p6-64" target="McbWOgq2CKRxM0jZ_3p6-55" edge="1">
          <mxGeometry relative="1" as="geometry" />
        </mxCell>
        <mxCell id="McbWOgq2CKRxM0jZ_3p6-64" value="3.0" style="swimlane;fontStyle=0;childLayout=stackLayout;horizontal=1;startSize=20;fillColor=#FFFFFF;horizontalStack=0;resizeParent=1;resizeParentMax=0;resizeLast=0;collapsible=0;marginBottom=0;swimlaneFillColor=#ffffff;strokeColor=#000000;labelBorderColor=none;" parent="1" vertex="1">
          <mxGeometry x="260" y="1015" width="130" height="70" as="geometry" />
        </mxCell>
        <mxCell id="McbWOgq2CKRxM0jZ_3p6-65" value="Процессинг платежа" style="text;strokeColor=#000000;align=center;fillColor=#FFFFFF;html=1;verticalAlign=middle;whiteSpace=wrap;rounded=0;" parent="McbWOgq2CKRxM0jZ_3p6-64" vertex="1">
          <mxGeometry y="20" width="130" height="50" as="geometry" />
        </mxCell>
        <mxCell id="McbWOgq2CKRxM0jZ_3p6-68" value="&lt;b style=&quot;forced-color-adjust: none; color: rgb(0, 0, 0); font-family: Helvetica; font-size: 24px; font-style: normal; font-variant-ligatures: normal; font-variant-caps: normal; letter-spacing: normal; orphans: 2; text-align: left; text-indent: 0px; text-transform: none; widows: 2; word-spacing: 0px; -webkit-text-stroke-width: 0px; white-space: normal; background-color: rgb(236, 236, 236); text-decoration-thickness: initial; text-decoration-style: initial; text-decoration-color: initial;&quot;&gt;Учет товарно--материальных ценностей&lt;/b&gt;" style="text;whiteSpace=wrap;html=1;" parent="1" vertex="1">
          <mxGeometry x="-370" y="1160" width="500" height="50" as="geometry" />
        </mxCell>
        <mxCell id="McbWOgq2CKRxM0jZ_3p6-86" style="edgeStyle=orthogonalEdgeStyle;rounded=0;orthogonalLoop=1;jettySize=auto;html=1;" parent="1" source="McbWOgq2CKRxM0jZ_3p6-69" edge="1">
          <mxGeometry relative="1" as="geometry">
            <mxPoint x="-150" y="1310" as="targetPoint" />
            <Array as="points">
              <mxPoint x="-150" y="1310" />
            </Array>
          </mxGeometry>
        </mxCell>
        <mxCell id="McbWOgq2CKRxM0jZ_3p6-69" value="Сотрудник склада" style="rounded=0;whiteSpace=wrap;html=1;" parent="1" vertex="1">
          <mxGeometry x="-370" y="1280" width="120" height="60" as="geometry" />
        </mxCell>
        <mxCell id="McbWOgq2CKRxM0jZ_3p6-70" value="1.0" style="swimlane;fontStyle=0;childLayout=stackLayout;horizontal=1;startSize=20;fillColor=#FFFFFF;horizontalStack=0;resizeParent=1;resizeParentMax=0;resizeLast=0;collapsible=0;marginBottom=0;swimlaneFillColor=#ffffff;strokeColor=#000000;labelBorderColor=none;" parent="1" vertex="1">
          <mxGeometry x="-150" y="1280" width="130" height="70" as="geometry" />
        </mxCell>
        <mxCell id="McbWOgq2CKRxM0jZ_3p6-71" value="Работа с оборудованием" style="text;strokeColor=#000000;align=center;fillColor=#FFFFFF;html=1;verticalAlign=middle;whiteSpace=wrap;rounded=0;" parent="McbWOgq2CKRxM0jZ_3p6-70" vertex="1">
          <mxGeometry y="20" width="130" height="50" as="geometry" />
        </mxCell>
        <mxCell id="McbWOgq2CKRxM0jZ_3p6-91" style="edgeStyle=orthogonalEdgeStyle;rounded=0;orthogonalLoop=1;jettySize=auto;html=1;entryX=0;entryY=0.25;entryDx=0;entryDy=0;" parent="1" source="McbWOgq2CKRxM0jZ_3p6-74" target="McbWOgq2CKRxM0jZ_3p6-90" edge="1">
          <mxGeometry relative="1" as="geometry">
            <Array as="points">
              <mxPoint x="259" y="1318" />
            </Array>
          </mxGeometry>
        </mxCell>
        <mxCell id="McbWOgq2CKRxM0jZ_3p6-74" value="1C Торговля м склад" style="rounded=1;whiteSpace=wrap;html=1;" parent="1" vertex="1">
          <mxGeometry x="100" y="1290" width="120" height="60" as="geometry" />
        </mxCell>
        <mxCell id="McbWOgq2CKRxM0jZ_3p6-75" value="1C Бухгалтерия" style="rounded=1;whiteSpace=wrap;html=1;" parent="1" vertex="1">
          <mxGeometry x="580" y="1300" width="120" height="60" as="geometry" />
        </mxCell>
        <mxCell id="McbWOgq2CKRxM0jZ_3p6-76" style="edgeStyle=orthogonalEdgeStyle;rounded=0;orthogonalLoop=1;jettySize=auto;html=1;" parent="1" source="McbWOgq2CKRxM0jZ_3p6-77" edge="1">
          <mxGeometry relative="1" as="geometry">
            <mxPoint x="100" y="1465" as="targetPoint" />
            <Array as="points">
              <mxPoint x="100" y="1465" />
            </Array>
          </mxGeometry>
        </mxCell>
        <mxCell id="McbWOgq2CKRxM0jZ_3p6-77" value="Бухгалтер" style="rounded=0;whiteSpace=wrap;html=1;" parent="1" vertex="1">
          <mxGeometry x="-110" y="1435" width="120" height="60" as="geometry" />
        </mxCell>
        <mxCell id="McbWOgq2CKRxM0jZ_3p6-79" value="3.0" style="swimlane;fontStyle=0;childLayout=stackLayout;horizontal=1;startSize=20;fillColor=#FFFFFF;horizontalStack=0;resizeParent=1;resizeParentMax=0;resizeLast=0;collapsible=0;marginBottom=0;swimlaneFillColor=#ffffff;strokeColor=#000000;labelBorderColor=none;" parent="1" vertex="1">
          <mxGeometry x="100" y="1430" width="130" height="70" as="geometry" />
        </mxCell>
        <mxCell id="McbWOgq2CKRxM0jZ_3p6-80" value="Формирование платежей" style="text;strokeColor=#000000;align=center;fillColor=#FFFFFF;html=1;verticalAlign=middle;whiteSpace=wrap;rounded=0;" parent="McbWOgq2CKRxM0jZ_3p6-79" vertex="1">
          <mxGeometry y="20" width="130" height="50" as="geometry" />
        </mxCell>
        <mxCell id="McbWOgq2CKRxM0jZ_3p6-81" value="3.1" style="swimlane;fontStyle=0;childLayout=stackLayout;horizontal=1;startSize=20;fillColor=#FFFFFF;horizontalStack=0;resizeParent=1;resizeParentMax=0;resizeLast=0;collapsible=0;marginBottom=0;swimlaneFillColor=#ffffff;strokeColor=#000000;labelBorderColor=none;" parent="1" vertex="1">
          <mxGeometry x="290" y="1430" width="130" height="70" as="geometry" />
        </mxCell>
        <mxCell id="McbWOgq2CKRxM0jZ_3p6-82" value="Формирование контрольных документов" style="text;strokeColor=#000000;align=center;fillColor=#FFFFFF;html=1;verticalAlign=middle;whiteSpace=wrap;rounded=0;" parent="McbWOgq2CKRxM0jZ_3p6-81" vertex="1">
          <mxGeometry y="20" width="130" height="50" as="geometry" />
        </mxCell>
        <mxCell id="McbWOgq2CKRxM0jZ_3p6-84" style="edgeStyle=orthogonalEdgeStyle;rounded=0;orthogonalLoop=1;jettySize=auto;html=1;entryX=0;entryY=0.5;entryDx=0;entryDy=0;" parent="1" source="McbWOgq2CKRxM0jZ_3p6-80" target="McbWOgq2CKRxM0jZ_3p6-82" edge="1">
          <mxGeometry relative="1" as="geometry" />
        </mxCell>
        <mxCell id="McbWOgq2CKRxM0jZ_3p6-87" style="edgeStyle=orthogonalEdgeStyle;rounded=0;orthogonalLoop=1;jettySize=auto;html=1;entryX=0.583;entryY=1;entryDx=0;entryDy=0;entryPerimeter=0;" parent="1" source="McbWOgq2CKRxM0jZ_3p6-82" target="McbWOgq2CKRxM0jZ_3p6-75" edge="1">
          <mxGeometry relative="1" as="geometry" />
        </mxCell>
        <mxCell id="McbWOgq2CKRxM0jZ_3p6-88" style="edgeStyle=orthogonalEdgeStyle;rounded=0;orthogonalLoop=1;jettySize=auto;html=1;entryX=0;entryY=0.5;entryDx=0;entryDy=0;" parent="1" source="McbWOgq2CKRxM0jZ_3p6-71" target="McbWOgq2CKRxM0jZ_3p6-74" edge="1">
          <mxGeometry relative="1" as="geometry">
            <Array as="points">
              <mxPoint x="10" y="1320" />
              <mxPoint x="10" y="1320" />
            </Array>
          </mxGeometry>
        </mxCell>
        <mxCell id="McbWOgq2CKRxM0jZ_3p6-89" value="2.0" style="swimlane;fontStyle=0;childLayout=stackLayout;horizontal=1;startSize=20;fillColor=#FFFFFF;horizontalStack=0;resizeParent=1;resizeParentMax=0;resizeLast=0;collapsible=0;marginBottom=0;swimlaneFillColor=#ffffff;strokeColor=#000000;labelBorderColor=none;" parent="1" vertex="1">
          <mxGeometry x="299" y="1285" width="130" height="70" as="geometry" />
        </mxCell>
        <mxCell id="McbWOgq2CKRxM0jZ_3p6-90" value="Указание стоимости оборудования" style="text;strokeColor=#000000;align=center;fillColor=#FFFFFF;html=1;verticalAlign=middle;whiteSpace=wrap;rounded=0;" parent="McbWOgq2CKRxM0jZ_3p6-89" vertex="1">
          <mxGeometry y="20" width="130" height="50" as="geometry" />
        </mxCell>
        <mxCell id="McbWOgq2CKRxM0jZ_3p6-92" style="edgeStyle=orthogonalEdgeStyle;rounded=0;orthogonalLoop=1;jettySize=auto;html=1;" parent="1" source="McbWOgq2CKRxM0jZ_3p6-90" target="McbWOgq2CKRxM0jZ_3p6-75" edge="1">
          <mxGeometry relative="1" as="geometry" />
        </mxCell>
        <mxCell id="eAtQU9H83MEUMQEs67dP-1" value="Шифрование файлов" style="ellipse;shape=cloud;whiteSpace=wrap;html=1;" vertex="1" parent="1">
          <mxGeometry x="-280" y="260" width="115" height="70" as="geometry" />
        </mxCell>
        <mxCell id="eAtQU9H83MEUMQEs67dP-2" value="RBAC,&amp;nbsp;&lt;div&gt;шифрование при передаче&lt;/div&gt;" style="ellipse;shape=cloud;whiteSpace=wrap;html=1;" vertex="1" parent="1">
          <mxGeometry x="510" y="270" width="150" height="90" as="geometry" />
        </mxCell>
        <mxCell id="eAtQU9H83MEUMQEs67dP-3" value="Маскирование данных, аудит" style="ellipse;shape=cloud;whiteSpace=wrap;html=1;" vertex="1" parent="1">
          <mxGeometry x="184" y="900" width="126" height="80" as="geometry" />
        </mxCell>
        <mxCell id="eAtQU9H83MEUMQEs67dP-4" value="Шифрование при передаче" style="ellipse;shape=cloud;whiteSpace=wrap;html=1;" vertex="1" parent="1">
          <mxGeometry x="420" y="1050" width="126" height="80" as="geometry" />
        </mxCell>
        <mxCell id="eAtQU9H83MEUMQEs67dP-5" value="Шифрование при передаче" style="ellipse;shape=cloud;whiteSpace=wrap;html=1;" vertex="1" parent="1">
          <mxGeometry x="522" y="1390" width="126" height="80" as="geometry" />
        </mxCell>
        <mxCell id="eAtQU9H83MEUMQEs67dP-6" value="Шифрование при передаче" style="ellipse;shape=cloud;whiteSpace=wrap;html=1;" vertex="1" parent="1">
          <mxGeometry x="444" y="1250" width="126" height="80" as="geometry" />
        </mxCell>
      </root>
    </mxGraphModel>
  </diagram>
</mxfile>
